Coordinates
version=1
nRows=9
nColumns=36
inDegrees=yes

Units are S.I. units (second, meters, Newtons, ...)
If the header above contains a line with 'inDegrees', this indicates whether rotational values are in degrees (yes) or radians (no).

endheader
time	pelvis_tilt	pelvis_list	pelvis_rotation	pelvis_tx	pelvis_ty	pelvis_tz	hip_flexion_r	hip_adduction_r	hip_rotation_r	knee_angle_r	knee_angle_r_beta	ankle_angle_r	subtalar_angle_r	mtp_angle_r	hip_flexion_l	hip_adduction_l	hip_rotation_l	knee_angle_l	knee_angle_l_beta	ankle_angle_l	subtalar_angle_l	mtp_angle_l	lumbar_extension	lumbar_bending	lumbar_rotation	arm_flex_r	arm_add_r	arm_rot_r	elbow_flex_r	pro_sup_r	arm_flex_l	arm_add_l	arm_rot_l	elbow_flex_l	pro_sup_l
      1.25000000	     -5.05492581	     -2.16439283	     11.95756503	     -0.17981462	      1.24531430	      0.32806252	      6.67843458	      0.61943979	      0.12628926	      7.58697053	      0.13241762	      9.11483600	     -4.83762029	     -7.49999987	      6.94746561	     -0.51542464	     -1.06978673	      6.22944271	      0.10872429	      7.65530036	     -0.74878874	     -7.49999987	     -0.53170016	     -0.01050269	     -1.86994644	      4.63271213	     -8.17515327	     11.80877514	     15.71375503	     96.50720314	      9.33215217	     -8.35946187	     18.36201787	      9.92125765	     99.73218969
      1.26666670	     -4.99569893	     -2.30801584	     11.74142490	     -0.17799480	      1.24213560	      0.32820549	      7.32600123	      0.74896158	     -0.01426572	      8.96581964	      0.15648307	      9.28738930	     -4.99569936	     -7.49999987	      7.56437321	     -0.76371653	     -1.31937022	      7.50967989	      0.13106864	      8.12140703	     -1.11445266	     -7.49999987	     -1.09063209	      0.22061557	     -1.84561868	      4.53092709	     -8.30523897	     11.73547587	     16.11704429	     96.22235291	      9.37706300	     -8.43660126	     18.28566162	     10.65869686	     99.36963376
      1.28333330	     -5.88118276	     -2.57326048	     11.37754275	     -0.17901981	      1.24038957	      0.32823437	      9.25104698	      0.79448830	      0.02331118	     10.74364901	      0.18751205	      9.75516773	     -5.10850452	     -7.49999987	      9.34801359	     -0.96753920	     -1.60897448	      9.13532818	      0.15944156	      8.94926145	     -1.31107969	     -7.49999987	     -0.28522381	      0.38909506	     -1.60900765	      4.28371163	     -8.36816447	     12.27295864	     16.16706389	     91.96370322	      9.52843431	     -8.13599398	     18.46451144	     10.29884324	     94.79403435
      1.30000000	     -5.71584983	     -2.67412233	     11.15193305	     -0.17771506	      1.24430385	      0.32846236	      9.73610033	      0.90943652	      0.09813863	     12.00885368	      0.20959404	      9.96407870	     -5.19007990	     -7.49999987	      9.77396630	     -1.21470698	     -1.77269875	     10.39918186	      0.18149996	      9.33647203	     -1.82080336	     -7.49999987	     -0.98802520	      0.65335693	     -1.58600593	      4.54014266	     -8.46100628	     12.27164809	     16.31861317	     92.08529319	      9.64699329	     -8.07935081	     18.50046896	     10.39928425	     94.93156138
      1.31666670	     -6.73292673	     -2.89858247	     10.71436304	     -0.17887195	      1.23938141	      0.32877312	     11.81542259	      0.91660461	      0.16214368	     13.81315466	      0.24108503	     10.53683488	     -5.13093273	     -7.49999987	     11.70536135	     -1.32381334	     -1.59306845	     12.11501458	      0.21144689	     10.02576755	     -2.58639985	     -7.49999987	     -0.26621693	      0.78062075	     -1.45708332	      4.08807118	     -8.71934846	     12.44773990	     16.89374121	     93.88463630	      9.55953013	     -8.06007191	     18.87118363	     10.77571947	     96.95955731
      1.33333330	     -7.22269932	     -3.07049388	     10.41416937	     -0.17690539	      1.23895897	      0.32901546	     13.16020630	      0.98774139	      0.19408923	     15.32960614	      0.26755210	     10.99439071	     -4.96961548	     -7.49999987	     13.01648604	     -1.47982934	     -1.60154708	     13.67971013	      0.23875598	     10.56950859	     -3.21592389	     -7.49999987	     -0.20768804	      0.97403808	     -1.33379104	      3.77080131	     -8.83508928	     12.15043178	     17.42738226	     91.70396300	      9.66015992	     -7.70952497	     18.42299350	     10.63365829	     94.86471011
      1.35000000	     -7.70743260	     -3.22175756	     10.21224245	     -0.17781580	      1.23777771	      0.32895578	     14.38979208	      0.97886674	     -0.01591702	     16.61166231	      0.28992820	     11.43191248	     -4.51552340	     -7.49999987	     14.22451527	     -1.57992689	     -1.52778930	     15.07117086	      0.26304155	     10.86162456	     -3.80007148	     -7.49999987	     -0.44640472	      1.28540708	     -1.46621914	      3.41966061	     -9.06871164	     12.05712435	     18.49127282	     88.68277489	      9.32179909	     -7.59574863	     18.07680820	     11.56321006	     91.67407585
      1.36666670	     -8.62717582	     -3.40609343	      9.76874575	     -0.18433896	      1.22770304	      0.33339203	     16.51692569	      1.02608354	      0.17767443	     18.65685547	      0.32562356	     12.27824338	     -4.21004779	     -7.49999987	     16.29838974	     -1.70508757	     -1.49907921	     17.12548693	      0.29889613	     11.82297841	     -4.56551312	     -7.49999987	     -0.15773380	      1.43992117	     -1.19695454	      3.41885135	     -9.19764600	     12.14014165	     18.14868605	     88.95338864	      9.48793712	     -7.40761745	     17.93856324	     11.31041944	     91.86895345
      1.38333330	     -9.23789053	     -3.52048145	      9.36787856	     -0.17575617	      1.22332882	      0.33636326	     18.21486043	      1.04403454	      0.22100791	     20.56182529	      0.35887155	     13.14987368	     -3.75203031	     -7.49999987	     17.84672253	     -1.85534382	     -1.55342767	     19.00513989	      0.33170227	     12.59747536	     -5.19450806	     -7.49999987	     -0.44381358	      1.68088662	     -1.05546050	      3.35213455	     -9.38099230	     12.13562742	     18.76141904	     89.49154245	      9.40719937	     -7.30502782	     17.71003195	     11.66823868	     92.37123503
